<svg width="483" height="307" viewBox="0 0 483 307" fill="none" xmlns="http://www.w3.org/2000/svg">
<path opacity="0.1" d="M4.54787 9.77515C7.05958 9.77515 9.09573 7.58691 9.09573 4.88757C9.09573 2.18824 7.05958 0 4.54787 0C2.03615 0 0 2.18824 0 4.88757C0 7.58691 2.03615 9.77515 4.54787 9.77515Z" fill="#3B4C68"/>
<path opacity="0.1" d="M43.9628 9.77515C46.4745 9.77515 48.5107 7.58691 48.5107 4.88757C48.5107 2.18824 46.4745 0 43.9628 0C41.451 0 39.4149 2.18824 39.4149 4.88757C39.4149 7.58691 41.451 9.77515 43.9628 9.77515Z" fill="#3B4C68"/>
<path opacity="0.1" d="M83.3777 9.77515C85.8894 9.77515 87.9255 7.58691 87.9255 4.88757C87.9255 2.18824 85.8894 0 83.3777 0C80.8659 0 78.8298 2.18824 78.8298 4.88757C78.8298 7.58691 80.8659 9.77515 83.3777 9.77515Z" fill="#3B4C68"/>
<path opacity="0.1" d="M122.793 9.77515C125.304 9.77515 127.34 7.58691 127.34 4.88757C127.34 2.18824 125.304 0 122.793 0C120.281 0 118.245 2.18824 118.245 4.88757C118.245 7.58691 120.281 9.77515 122.793 9.77515Z" fill="#3B4C68"/>
<path opacity="0.1" d="M162.207 9.77515C164.719 9.77515 166.755 7.58691 166.755 4.88757C166.755 2.18824 164.719 0 162.207 0C159.696 0 157.66 2.18824 157.66 4.88757C157.66 7.58691 159.696 9.77515 162.207 9.77515Z" fill="#3B4C68"/>
<path opacity="0.1" d="M201.622 9.77515C204.134 9.77515 206.17 7.58691 206.17 4.88757C206.17 2.18824 204.134 0 201.622 0C199.111 0 197.074 2.18824 197.074 4.88757C197.074 7.58691 199.111 9.77515 201.622 9.77515Z" fill="#3B4C68"/>
<path opacity="0.1" d="M241.037 9.77515C243.549 9.77515 245.585 7.58691 245.585 4.88757C245.585 2.18824 243.549 0 241.037 0C238.526 0 236.489 2.18824 236.489 4.88757C236.489 7.58691 238.526 9.77515 241.037 9.77515Z" fill="#3B4C68"/>
<path opacity="0.1" d="M280.452 9.77515C282.964 9.77515 285 7.58691 285 4.88757C285 2.18824 282.964 0 280.452 0C277.94 0 275.904 2.18824 275.904 4.88757C275.904 7.58691 277.94 9.77515 280.452 9.77515Z" fill="#3B4C68"/>
<path opacity="0.1" d="M319.867 9.77515C322.379 9.77515 324.415 7.58691 324.415 4.88757C324.415 2.18824 322.379 0 319.867 0C317.355 0 315.319 2.18824 315.319 4.88757C315.319 7.58691 317.355 9.77515 319.867 9.77515Z" fill="#3B4C68"/>
<path opacity="0.1" d="M359.282 9.77515C361.794 9.77515 363.83 7.58691 363.83 4.88757C363.83 2.18824 361.794 0 359.282 0C356.77 0 354.734 2.18824 354.734 4.88757C354.734 7.58691 356.77 9.77515 359.282 9.77515Z" fill="#3B4C68"/>
<path opacity="0.1" d="M398.697 9.77515C401.209 9.77515 403.245 7.58691 403.245 4.88757C403.245 2.18824 401.209 0 398.697 0C396.185 0 394.149 2.18824 394.149 4.88757C394.149 7.58691 396.185 9.77515 398.697 9.77515Z" fill="#3B4C68"/>
<path opacity="0.1" d="M438.112 9.77515C440.623 9.77515 442.66 7.58691 442.66 4.88757C442.66 2.18824 440.623 0 438.112 0C435.6 0 433.564 2.18824 433.564 4.88757C433.564 7.58691 435.6 9.77515 438.112 9.77515Z" fill="#3B4C68"/>
<path opacity="0.1" d="M477.527 9.77515C480.038 9.77515 482.074 7.58691 482.074 4.88757C482.074 2.18824 480.038 0 477.527 0C475.015 0 472.979 2.18824 472.979 4.88757C472.979 7.58691 475.015 9.77515 477.527 9.77515Z" fill="#3B4C68"/>
<path opacity="0.1" d="M4.54787 52.1344C7.05958 52.1344 9.09573 49.9461 9.09573 47.2468C9.09573 44.5474 7.05958 42.3591 4.54787 42.3591C2.03615 42.3591 0 44.5474 0 47.2468C0 49.9461 2.03615 52.1344 4.54787 52.1344Z" fill="#3B4C68"/>
<path opacity="0.1" d="M43.9628 52.1344C46.4745 52.1344 48.5107 49.9461 48.5107 47.2468C48.5107 44.5474 46.4745 42.3591 43.9628 42.3591C41.451 42.3591 39.4149 44.5474 39.4149 47.2468C39.4149 49.9461 41.451 52.1344 43.9628 52.1344Z" fill="#3B4C68"/>
<path opacity="0.1" d="M83.3777 52.1344C85.8894 52.1344 87.9255 49.9461 87.9255 47.2468C87.9255 44.5474 85.8894 42.3591 83.3777 42.3591C80.8659 42.3591 78.8298 44.5474 78.8298 47.2468C78.8298 49.9461 80.8659 52.1344 83.3777 52.1344Z" fill="#3B4C68"/>
<path opacity="0.1" d="M122.793 52.1344C125.304 52.1344 127.34 49.9461 127.34 47.2468C127.34 44.5474 125.304 42.3591 122.793 42.3591C120.281 42.3591 118.245 44.5474 118.245 47.2468C118.245 49.9461 120.281 52.1344 122.793 52.1344Z" fill="#3B4C68"/>
<path opacity="0.1" d="M162.207 52.1344C164.719 52.1344 166.755 49.9461 166.755 47.2468C166.755 44.5474 164.719 42.3591 162.207 42.3591C159.696 42.3591 157.66 44.5474 157.66 47.2468C157.66 49.9461 159.696 52.1344 162.207 52.1344Z" fill="#3B4C68"/>
<path opacity="0.1" d="M201.622 52.1344C204.134 52.1344 206.17 49.9461 206.17 47.2468C206.17 44.5474 204.134 42.3591 201.622 42.3591C199.111 42.3591 197.074 44.5474 197.074 47.2468C197.074 49.9461 199.111 52.1344 201.622 52.1344Z" fill="#3B4C68"/>
<path opacity="0.1" d="M241.037 52.1344C243.549 52.1344 245.585 49.9461 245.585 47.2468C245.585 44.5474 243.549 42.3591 241.037 42.3591C238.526 42.3591 236.489 44.5474 236.489 47.2468C236.489 49.9461 238.526 52.1344 241.037 52.1344Z" fill="#3B4C68"/>
<path opacity="0.1" d="M280.452 52.1344C282.964 52.1344 285 49.9461 285 47.2468C285 44.5474 282.964 42.3591 280.452 42.3591C277.94 42.3591 275.904 44.5474 275.904 47.2468C275.904 49.9461 277.94 52.1344 280.452 52.1344Z" fill="#3B4C68"/>
<path opacity="0.1" d="M319.867 52.1344C322.379 52.1344 324.415 49.9461 324.415 47.2468C324.415 44.5474 322.379 42.3591 319.867 42.3591C317.355 42.3591 315.319 44.5474 315.319 47.2468C315.319 49.9461 317.355 52.1344 319.867 52.1344Z" fill="#3B4C68"/>
<path opacity="0.1" d="M359.282 52.1344C361.794 52.1344 363.83 49.9461 363.83 47.2468C363.83 44.5474 361.794 42.3591 359.282 42.3591C356.77 42.3591 354.734 44.5474 354.734 47.2468C354.734 49.9461 356.77 52.1344 359.282 52.1344Z" fill="#3B4C68"/>
<path opacity="0.1" d="M398.697 52.1344C401.209 52.1344 403.245 49.9461 403.245 47.2468C403.245 44.5474 401.209 42.3591 398.697 42.3591C396.185 42.3591 394.149 44.5474 394.149 47.2468C394.149 49.9461 396.185 52.1344 398.697 52.1344Z" fill="#3B4C68"/>
<path opacity="0.1" d="M438.112 52.1344C440.623 52.1344 442.66 49.9461 442.66 47.2468C442.66 44.5474 440.623 42.3591 438.112 42.3591C435.6 42.3591 433.564 44.5474 433.564 47.2468C433.564 49.9461 435.6 52.1344 438.112 52.1344Z" fill="#3B4C68"/>
<path opacity="0.1" d="M477.527 52.1344C480.038 52.1344 482.074 49.9461 482.074 47.2468C482.074 44.5474 480.038 42.3591 477.527 42.3591C475.015 42.3591 472.979 44.5474 472.979 47.2468C472.979 49.9461 475.015 52.1344 477.527 52.1344Z" fill="#3B4C68"/>
<path opacity="0.1" d="M4.54787 94.4937C7.05958 94.4937 9.09573 92.3054 9.09573 89.6061C9.09573 86.9067 7.05958 84.7185 4.54787 84.7185C2.03615 84.7185 0 86.9067 0 89.6061C0 92.3054 2.03615 94.4937 4.54787 94.4937Z" fill="#3B4C68"/>
<path opacity="0.1" d="M43.9628 94.4937C46.4745 94.4937 48.5107 92.3054 48.5107 89.6061C48.5107 86.9067 46.4745 84.7185 43.9628 84.7185C41.451 84.7185 39.4149 86.9067 39.4149 89.6061C39.4149 92.3054 41.451 94.4937 43.9628 94.4937Z" fill="#3B4C68"/>
<path opacity="0.1" d="M83.3777 94.4937C85.8894 94.4937 87.9255 92.3054 87.9255 89.6061C87.9255 86.9067 85.8894 84.7185 83.3777 84.7185C80.8659 84.7185 78.8298 86.9067 78.8298 89.6061C78.8298 92.3054 80.8659 94.4937 83.3777 94.4937Z" fill="#3B4C68"/>
<path opacity="0.1" d="M122.793 94.4937C125.304 94.4937 127.34 92.3054 127.34 89.6061C127.34 86.9067 125.304 84.7185 122.793 84.7185C120.281 84.7185 118.245 86.9067 118.245 89.6061C118.245 92.3054 120.281 94.4937 122.793 94.4937Z" fill="#3B4C68"/>
<path opacity="0.1" d="M162.207 94.4937C164.719 94.4937 166.755 92.3054 166.755 89.6061C166.755 86.9067 164.719 84.7185 162.207 84.7185C159.696 84.7185 157.66 86.9067 157.66 89.6061C157.66 92.3054 159.696 94.4937 162.207 94.4937Z" fill="#3B4C68"/>
<path opacity="0.1" d="M201.622 94.4937C204.134 94.4937 206.17 92.3054 206.17 89.6061C206.17 86.9067 204.134 84.7185 201.622 84.7185C199.111 84.7185 197.074 86.9067 197.074 89.6061C197.074 92.3054 199.111 94.4937 201.622 94.4937Z" fill="#3B4C68"/>
<path opacity="0.1" d="M241.037 94.4937C243.549 94.4937 245.585 92.3054 245.585 89.6061C245.585 86.9067 243.549 84.7185 241.037 84.7185C238.526 84.7185 236.489 86.9067 236.489 89.6061C236.489 92.3054 238.526 94.4937 241.037 94.4937Z" fill="#3B4C68"/>
<path opacity="0.1" d="M280.452 94.4937C282.964 94.4937 285 92.3054 285 89.6061C285 86.9067 282.964 84.7185 280.452 84.7185C277.94 84.7185 275.904 86.9067 275.904 89.6061C275.904 92.3054 277.94 94.4937 280.452 94.4937Z" fill="#3B4C68"/>
<path opacity="0.1" d="M319.867 94.4937C322.379 94.4937 324.415 92.3054 324.415 89.6061C324.415 86.9067 322.379 84.7185 319.867 84.7185C317.355 84.7185 315.319 86.9067 315.319 89.6061C315.319 92.3054 317.355 94.4937 319.867 94.4937Z" fill="#3B4C68"/>
<path opacity="0.1" d="M359.282 94.4937C361.794 94.4937 363.83 92.3054 363.83 89.6061C363.83 86.9067 361.794 84.7185 359.282 84.7185C356.77 84.7185 354.734 86.9067 354.734 89.6061C354.734 92.3054 356.77 94.4937 359.282 94.4937Z" fill="#3B4C68"/>
<path opacity="0.1" d="M398.697 94.4937C401.209 94.4937 403.245 92.3054 403.245 89.6061C403.245 86.9067 401.209 84.7185 398.697 84.7185C396.185 84.7185 394.149 86.9067 394.149 89.6061C394.149 92.3054 396.185 94.4937 398.697 94.4937Z" fill="#3B4C68"/>
<path opacity="0.1" d="M438.112 94.4937C440.623 94.4937 442.66 92.3054 442.66 89.6061C442.66 86.9067 440.623 84.7185 438.112 84.7185C435.6 84.7185 433.564 86.9067 433.564 89.6061C433.564 92.3054 435.6 94.4937 438.112 94.4937Z" fill="#3B4C68"/>
<path opacity="0.1" d="M477.527 94.4937C480.038 94.4937 482.074 92.3054 482.074 89.6061C482.074 86.9067 480.038 84.7185 477.527 84.7185C475.015 84.7185 472.979 86.9067 472.979 89.6061C472.979 92.3054 475.015 94.4937 477.527 94.4937Z" fill="#3B4C68"/>
<path opacity="0.1" d="M4.54787 136.853C7.05958 136.853 9.09573 134.664 9.09573 131.965C9.09573 129.266 7.05958 127.078 4.54787 127.078C2.03615 127.078 0 129.266 0 131.965C0 134.664 2.03615 136.853 4.54787 136.853Z" fill="#3B4C68"/>
<path opacity="0.1" d="M43.9628 136.853C46.4745 136.853 48.5107 134.664 48.5107 131.965C48.5107 129.266 46.4745 127.078 43.9628 127.078C41.451 127.078 39.4149 129.266 39.4149 131.965C39.4149 134.664 41.451 136.853 43.9628 136.853Z" fill="#3B4C68"/>
<path opacity="0.1" d="M83.3777 136.853C85.8894 136.853 87.9255 134.664 87.9255 131.965C87.9255 129.266 85.8894 127.078 83.3777 127.078C80.8659 127.078 78.8298 129.266 78.8298 131.965C78.8298 134.664 80.8659 136.853 83.3777 136.853Z" fill="#3B4C68"/>
<path opacity="0.1" d="M122.793 136.853C125.304 136.853 127.34 134.664 127.34 131.965C127.34 129.266 125.304 127.078 122.793 127.078C120.281 127.078 118.245 129.266 118.245 131.965C118.245 134.664 120.281 136.853 122.793 136.853Z" fill="#3B4C68"/>
<path opacity="0.1" d="M162.207 136.853C164.719 136.853 166.755 134.664 166.755 131.965C166.755 129.266 164.719 127.078 162.207 127.078C159.696 127.078 157.66 129.266 157.66 131.965C157.66 134.664 159.696 136.853 162.207 136.853Z" fill="#3B4C68"/>
<path opacity="0.1" d="M201.622 136.853C204.134 136.853 206.17 134.664 206.17 131.965C206.17 129.266 204.134 127.078 201.622 127.078C199.111 127.078 197.074 129.266 197.074 131.965C197.074 134.664 199.111 136.853 201.622 136.853Z" fill="#3B4C68"/>
<path opacity="0.1" d="M241.037 136.853C243.549 136.853 245.585 134.664 245.585 131.965C245.585 129.266 243.549 127.078 241.037 127.078C238.526 127.078 236.489 129.266 236.489 131.965C236.489 134.664 238.526 136.853 241.037 136.853Z" fill="#3B4C68"/>
<path opacity="0.1" d="M280.452 136.853C282.964 136.853 285 134.664 285 131.965C285 129.266 282.964 127.078 280.452 127.078C277.94 127.078 275.904 129.266 275.904 131.965C275.904 134.664 277.94 136.853 280.452 136.853Z" fill="#3B4C68"/>
<path opacity="0.1" d="M319.867 136.853C322.379 136.853 324.415 134.664 324.415 131.965C324.415 129.266 322.379 127.078 319.867 127.078C317.355 127.078 315.319 129.266 315.319 131.965C315.319 134.664 317.355 136.853 319.867 136.853Z" fill="#3B4C68"/>
<path opacity="0.1" d="M359.282 136.853C361.794 136.853 363.83 134.664 363.83 131.965C363.83 129.266 361.794 127.078 359.282 127.078C356.77 127.078 354.734 129.266 354.734 131.965C354.734 134.664 356.77 136.853 359.282 136.853Z" fill="#3B4C68"/>
<path opacity="0.1" d="M398.697 136.853C401.209 136.853 403.245 134.664 403.245 131.965C403.245 129.266 401.209 127.078 398.697 127.078C396.185 127.078 394.149 129.266 394.149 131.965C394.149 134.664 396.185 136.853 398.697 136.853Z" fill="#3B4C68"/>
<path opacity="0.1" d="M438.112 136.853C440.623 136.853 442.66 134.664 442.66 131.965C442.66 129.266 440.623 127.078 438.112 127.078C435.6 127.078 433.564 129.266 433.564 131.965C433.564 134.664 435.6 136.853 438.112 136.853Z" fill="#3B4C68"/>
<path opacity="0.1" d="M477.527 136.853C480.038 136.853 482.074 134.664 482.074 131.965C482.074 129.266 480.038 127.078 477.527 127.078C475.015 127.078 472.979 129.266 472.979 131.965C472.979 134.664 475.015 136.853 477.527 136.853Z" fill="#3B4C68"/>
<path opacity="0.1" d="M4.54787 179.212C7.05958 179.212 9.09573 177.024 9.09573 174.324C9.09573 171.625 7.05958 169.437 4.54787 169.437C2.03615 169.437 0 171.625 0 174.324C0 177.024 2.03615 179.212 4.54787 179.212Z" fill="#3B4C68"/>
<path opacity="0.1" d="M43.9628 179.212C46.4745 179.212 48.5107 177.024 48.5107 174.324C48.5107 171.625 46.4745 169.437 43.9628 169.437C41.451 169.437 39.4149 171.625 39.4149 174.324C39.4149 177.024 41.451 179.212 43.9628 179.212Z" fill="#3B4C68"/>
<path opacity="0.1" d="M83.3777 179.212C85.8894 179.212 87.9255 177.024 87.9255 174.324C87.9255 171.625 85.8894 169.437 83.3777 169.437C80.8659 169.437 78.8298 171.625 78.8298 174.324C78.8298 177.024 80.8659 179.212 83.3777 179.212Z" fill="#3B4C68"/>
<path opacity="0.1" d="M122.793 179.212C125.304 179.212 127.34 177.024 127.34 174.324C127.34 171.625 125.304 169.437 122.793 169.437C120.281 169.437 118.245 171.625 118.245 174.324C118.245 177.024 120.281 179.212 122.793 179.212Z" fill="#3B4C68"/>
<path opacity="0.1" d="M162.207 179.212C164.719 179.212 166.755 177.024 166.755 174.324C166.755 171.625 164.719 169.437 162.207 169.437C159.696 169.437 157.66 171.625 157.66 174.324C157.66 177.024 159.696 179.212 162.207 179.212Z" fill="#3B4C68"/>
<path opacity="0.1" d="M201.622 179.212C204.134 179.212 206.17 177.024 206.17 174.324C206.17 171.625 204.134 169.437 201.622 169.437C199.111 169.437 197.074 171.625 197.074 174.324C197.074 177.024 199.111 179.212 201.622 179.212Z" fill="#3B4C68"/>
<path opacity="0.1" d="M241.037 179.212C243.549 179.212 245.585 177.024 245.585 174.324C245.585 171.625 243.549 169.437 241.037 169.437C238.526 169.437 236.489 171.625 236.489 174.324C236.489 177.024 238.526 179.212 241.037 179.212Z" fill="#3B4C68"/>
<path opacity="0.1" d="M280.452 179.212C282.964 179.212 285 177.024 285 174.324C285 171.625 282.964 169.437 280.452 169.437C277.94 169.437 275.904 171.625 275.904 174.324C275.904 177.024 277.94 179.212 280.452 179.212Z" fill="#3B4C68"/>
<path opacity="0.1" d="M319.867 179.212C322.379 179.212 324.415 177.024 324.415 174.324C324.415 171.625 322.379 169.437 319.867 169.437C317.355 169.437 315.319 171.625 315.319 174.324C315.319 177.024 317.355 179.212 319.867 179.212Z" fill="#3B4C68"/>
<path opacity="0.1" d="M359.282 179.212C361.794 179.212 363.83 177.024 363.83 174.324C363.83 171.625 361.794 169.437 359.282 169.437C356.77 169.437 354.734 171.625 354.734 174.324C354.734 177.024 356.77 179.212 359.282 179.212Z" fill="#3B4C68"/>
<path opacity="0.1" d="M398.697 179.212C401.209 179.212 403.245 177.024 403.245 174.324C403.245 171.625 401.209 169.437 398.697 169.437C396.185 169.437 394.149 171.625 394.149 174.324C394.149 177.024 396.185 179.212 398.697 179.212Z" fill="#3B4C68"/>
<path opacity="0.1" d="M438.112 179.212C440.623 179.212 442.66 177.024 442.66 174.324C442.66 171.625 440.623 169.437 438.112 169.437C435.6 169.437 433.564 171.625 433.564 174.324C433.564 177.024 435.6 179.212 438.112 179.212Z" fill="#3B4C68"/>
<path opacity="0.1" d="M477.527 179.212C480.038 179.212 482.074 177.024 482.074 174.324C482.074 171.625 480.038 169.437 477.527 169.437C475.015 169.437 472.979 171.625 472.979 174.324C472.979 177.024 475.015 179.212 477.527 179.212Z" fill="#3B4C68"/>
<path opacity="0.1" d="M4.54787 221.571C7.05958 221.571 9.09573 219.383 9.09573 216.684C9.09573 213.984 7.05958 211.796 4.54787 211.796C2.03615 211.796 0 213.984 0 216.684C0 219.383 2.03615 221.571 4.54787 221.571Z" fill="#3B4C68"/>
<path opacity="0.1" d="M43.9628 221.571C46.4745 221.571 48.5107 219.383 48.5107 216.684C48.5107 213.984 46.4745 211.796 43.9628 211.796C41.451 211.796 39.4149 213.984 39.4149 216.684C39.4149 219.383 41.451 221.571 43.9628 221.571Z" fill="#3B4C68"/>
<path opacity="0.1" d="M83.3777 221.571C85.8894 221.571 87.9255 219.383 87.9255 216.684C87.9255 213.984 85.8894 211.796 83.3777 211.796C80.8659 211.796 78.8298 213.984 78.8298 216.684C78.8298 219.383 80.8659 221.571 83.3777 221.571Z" fill="#3B4C68"/>
<path opacity="0.1" d="M122.793 221.571C125.304 221.571 127.34 219.383 127.34 216.684C127.34 213.984 125.304 211.796 122.793 211.796C120.281 211.796 118.245 213.984 118.245 216.684C118.245 219.383 120.281 221.571 122.793 221.571Z" fill="#3B4C68"/>
<path opacity="0.1" d="M162.207 221.571C164.719 221.571 166.755 219.383 166.755 216.684C166.755 213.984 164.719 211.796 162.207 211.796C159.696 211.796 157.66 213.984 157.66 216.684C157.66 219.383 159.696 221.571 162.207 221.571Z" fill="#3B4C68"/>
<path opacity="0.1" d="M201.622 221.571C204.134 221.571 206.17 219.383 206.17 216.684C206.17 213.984 204.134 211.796 201.622 211.796C199.111 211.796 197.074 213.984 197.074 216.684C197.074 219.383 199.111 221.571 201.622 221.571Z" fill="#3B4C68"/>
<path opacity="0.1" d="M241.037 221.571C243.549 221.571 245.585 219.383 245.585 216.684C245.585 213.984 243.549 211.796 241.037 211.796C238.526 211.796 236.489 213.984 236.489 216.684C236.489 219.383 238.526 221.571 241.037 221.571Z" fill="#3B4C68"/>
<path opacity="0.1" d="M280.452 221.571C282.964 221.571 285 219.383 285 216.684C285 213.984 282.964 211.796 280.452 211.796C277.94 211.796 275.904 213.984 275.904 216.684C275.904 219.383 277.94 221.571 280.452 221.571Z" fill="#3B4C68"/>
<path opacity="0.1" d="M319.867 221.571C322.379 221.571 324.415 219.383 324.415 216.684C324.415 213.984 322.379 211.796 319.867 211.796C317.355 211.796 315.319 213.984 315.319 216.684C315.319 219.383 317.355 221.571 319.867 221.571Z" fill="#3B4C68"/>
<path opacity="0.1" d="M359.282 221.571C361.794 221.571 363.83 219.383 363.83 216.684C363.83 213.984 361.794 211.796 359.282 211.796C356.77 211.796 354.734 213.984 354.734 216.684C354.734 219.383 356.77 221.571 359.282 221.571Z" fill="#3B4C68"/>
<path opacity="0.1" d="M398.697 221.571C401.209 221.571 403.245 219.383 403.245 216.684C403.245 213.984 401.209 211.796 398.697 211.796C396.185 211.796 394.149 213.984 394.149 216.684C394.149 219.383 396.185 221.571 398.697 221.571Z" fill="#3B4C68"/>
<path opacity="0.1" d="M438.112 221.571C440.623 221.571 442.66 219.383 442.66 216.684C442.66 213.984 440.623 211.796 438.112 211.796C435.6 211.796 433.564 213.984 433.564 216.684C433.564 219.383 435.6 221.571 438.112 221.571Z" fill="#3B4C68"/>
<path opacity="0.1" d="M477.527 221.571C480.038 221.571 482.074 219.383 482.074 216.684C482.074 213.984 480.038 211.796 477.527 211.796C475.015 211.796 472.979 213.984 472.979 216.684C472.979 219.383 475.015 221.571 477.527 221.571Z" fill="#3B4C68"/>
<path opacity="0.1" d="M4.54787 263.93C7.05958 263.93 9.09573 261.742 9.09573 259.043C9.09573 256.343 7.05958 254.155 4.54787 254.155C2.03615 254.155 0 256.343 0 259.043C0 261.742 2.03615 263.93 4.54787 263.93Z" fill="#3B4C68"/>
<path opacity="0.1" d="M43.9628 263.93C46.4745 263.93 48.5107 261.742 48.5107 259.043C48.5107 256.343 46.4745 254.155 43.9628 254.155C41.451 254.155 39.4149 256.343 39.4149 259.043C39.4149 261.742 41.451 263.93 43.9628 263.93Z" fill="#3B4C68"/>
<path opacity="0.1" d="M83.3777 263.93C85.8894 263.93 87.9255 261.742 87.9255 259.043C87.9255 256.343 85.8894 254.155 83.3777 254.155C80.8659 254.155 78.8298 256.343 78.8298 259.043C78.8298 261.742 80.8659 263.93 83.3777 263.93Z" fill="#3B4C68"/>
<path opacity="0.1" d="M122.793 263.93C125.304 263.93 127.34 261.742 127.34 259.043C127.34 256.343 125.304 254.155 122.793 254.155C120.281 254.155 118.245 256.343 118.245 259.043C118.245 261.742 120.281 263.93 122.793 263.93Z" fill="#3B4C68"/>
<path opacity="0.1" d="M162.207 263.93C164.719 263.93 166.755 261.742 166.755 259.043C166.755 256.343 164.719 254.155 162.207 254.155C159.696 254.155 157.66 256.343 157.66 259.043C157.66 261.742 159.696 263.93 162.207 263.93Z" fill="#3B4C68"/>
<path opacity="0.1" d="M201.622 263.93C204.134 263.93 206.17 261.742 206.17 259.043C206.17 256.343 204.134 254.155 201.622 254.155C199.111 254.155 197.074 256.343 197.074 259.043C197.074 261.742 199.111 263.93 201.622 263.93Z" fill="#3B4C68"/>
<path opacity="0.1" d="M241.037 263.93C243.549 263.93 245.585 261.742 245.585 259.043C245.585 256.343 243.549 254.155 241.037 254.155C238.526 254.155 236.489 256.343 236.489 259.043C236.489 261.742 238.526 263.93 241.037 263.93Z" fill="#3B4C68"/>
<path opacity="0.1" d="M280.452 263.93C282.964 263.93 285 261.742 285 259.043C285 256.343 282.964 254.155 280.452 254.155C277.94 254.155 275.904 256.343 275.904 259.043C275.904 261.742 277.94 263.93 280.452 263.93Z" fill="#3B4C68"/>
<path opacity="0.1" d="M319.867 263.93C322.379 263.93 324.415 261.742 324.415 259.043C324.415 256.343 322.379 254.155 319.867 254.155C317.355 254.155 315.319 256.343 315.319 259.043C315.319 261.742 317.355 263.93 319.867 263.93Z" fill="#3B4C68"/>
<path opacity="0.1" d="M359.282 263.93C361.794 263.93 363.83 261.742 363.83 259.043C363.83 256.343 361.794 254.155 359.282 254.155C356.77 254.155 354.734 256.343 354.734 259.043C354.734 261.742 356.77 263.93 359.282 263.93Z" fill="#3B4C68"/>
<path opacity="0.1" d="M398.697 263.93C401.209 263.93 403.245 261.742 403.245 259.043C403.245 256.343 401.209 254.155 398.697 254.155C396.185 254.155 394.149 256.343 394.149 259.043C394.149 261.742 396.185 263.93 398.697 263.93Z" fill="#3B4C68"/>
<path opacity="0.1" d="M438.112 263.93C440.623 263.93 442.66 261.742 442.66 259.043C442.66 256.343 440.623 254.155 438.112 254.155C435.6 254.155 433.564 256.343 433.564 259.043C433.564 261.742 435.6 263.93 438.112 263.93Z" fill="#3B4C68"/>
<path opacity="0.1" d="M477.527 263.93C480.038 263.93 482.074 261.742 482.074 259.043C482.074 256.343 480.038 254.155 477.527 254.155C475.015 254.155 472.979 256.343 472.979 259.043C472.979 261.742 475.015 263.93 477.527 263.93Z" fill="#3B4C68"/>
<path opacity="0.1" d="M4.54787 306.29C7.05958 306.29 9.09573 304.101 9.09573 301.402C9.09573 298.703 7.05958 296.514 4.54787 296.514C2.03615 296.514 0 298.703 0 301.402C0 304.101 2.03615 306.29 4.54787 306.29Z" fill="#3B4C68"/>
<path opacity="0.1" d="M43.9628 306.29C46.4745 306.29 48.5107 304.101 48.5107 301.402C48.5107 298.703 46.4745 296.514 43.9628 296.514C41.451 296.514 39.4149 298.703 39.4149 301.402C39.4149 304.101 41.451 306.29 43.9628 306.29Z" fill="#3B4C68"/>
<path opacity="0.1" d="M83.3777 306.29C85.8894 306.29 87.9255 304.101 87.9255 301.402C87.9255 298.703 85.8894 296.514 83.3777 296.514C80.8659 296.514 78.8298 298.703 78.8298 301.402C78.8298 304.101 80.8659 306.29 83.3777 306.29Z" fill="#3B4C68"/>
<path opacity="0.1" d="M122.793 306.29C125.304 306.29 127.34 304.101 127.34 301.402C127.34 298.703 125.304 296.514 122.793 296.514C120.281 296.514 118.245 298.703 118.245 301.402C118.245 304.101 120.281 306.29 122.793 306.29Z" fill="#3B4C68"/>
<path opacity="0.1" d="M162.207 306.29C164.719 306.29 166.755 304.101 166.755 301.402C166.755 298.703 164.719 296.514 162.207 296.514C159.696 296.514 157.66 298.703 157.66 301.402C157.66 304.101 159.696 306.29 162.207 306.29Z" fill="#3B4C68"/>
<path opacity="0.1" d="M201.622 306.29C204.134 306.29 206.17 304.101 206.17 301.402C206.17 298.703 204.134 296.514 201.622 296.514C199.111 296.514 197.074 298.703 197.074 301.402C197.074 304.101 199.111 306.29 201.622 306.29Z" fill="#3B4C68"/>
<path opacity="0.1" d="M241.037 306.29C243.549 306.29 245.585 304.101 245.585 301.402C245.585 298.703 243.549 296.514 241.037 296.514C238.526 296.514 236.489 298.703 236.489 301.402C236.489 304.101 238.526 306.29 241.037 306.29Z" fill="#3B4C68"/>
<path opacity="0.1" d="M280.452 306.29C282.964 306.29 285 304.101 285 301.402C285 298.703 282.964 296.514 280.452 296.514C277.94 296.514 275.904 298.703 275.904 301.402C275.904 304.101 277.94 306.29 280.452 306.29Z" fill="#3B4C68"/>
<path opacity="0.1" d="M319.867 306.29C322.379 306.29 324.415 304.101 324.415 301.402C324.415 298.703 322.379 296.514 319.867 296.514C317.355 296.514 315.319 298.703 315.319 301.402C315.319 304.101 317.355 306.29 319.867 306.29Z" fill="#3B4C68"/>
<path opacity="0.1" d="M359.282 306.29C361.794 306.29 363.83 304.101 363.83 301.402C363.83 298.703 361.794 296.514 359.282 296.514C356.77 296.514 354.734 298.703 354.734 301.402C354.734 304.101 356.77 306.29 359.282 306.29Z" fill="#3B4C68"/>
<path opacity="0.1" d="M398.697 306.29C401.209 306.29 403.245 304.101 403.245 301.402C403.245 298.703 401.209 296.514 398.697 296.514C396.185 296.514 394.149 298.703 394.149 301.402C394.149 304.101 396.185 306.29 398.697 306.29Z" fill="#3B4C68"/>
<path opacity="0.1" d="M438.112 306.29C440.623 306.29 442.66 304.101 442.66 301.402C442.66 298.703 440.623 296.514 438.112 296.514C435.6 296.514 433.564 298.703 433.564 301.402C433.564 304.101 435.6 306.29 438.112 306.29Z" fill="#3B4C68"/>
<path opacity="0.1" d="M477.527 306.29C480.038 306.29 482.074 304.101 482.074 301.402C482.074 298.703 480.038 296.514 477.527 296.514C475.015 296.514 472.979 298.703 472.979 301.402C472.979 304.101 475.015 306.29 477.527 306.29Z" fill="#3B4C68"/>
</svg>
